<svg width="12" height="10" viewBox="0 0 12 10" fill="none" xmlns="http://www.w3.org/2000/svg">
<path d="M7.86889 9.7948C7.61822 8.23945 7.38683 6.76999 7.14098 5.2385L6.7457 5.55816C5.86549 6.32651 4.85322 6.93247 3.75695 7.34728C3.58457 7.42209 3.39613 7.45341 3.20852 7.43842C3.02091 7.42343 2.83999 7.36261 2.68196 7.2614C2.00227 6.83201 1.29847 6.43125 0.599487 6.02094C0.704212 5.86943 0.850869 5.75104 1.02187 5.67996C1.19288 5.60887 1.38097 5.58812 1.5636 5.62018C2.11436 5.67825 2.66801 5.70533 3.22187 5.70128C3.39577 5.69859 3.56441 5.64184 3.70393 5.53907C5.63215 3.91693 7.56038 2.28843 9.4886 0.653573C9.98965 0.21704 10.6386 -0.0163727 11.3059 -5.29998e-05C11.9037 -5.29998e-05 12.1544 0.391169 11.8989 0.954146C11.7577 1.23639 11.563 1.48909 11.3252 1.69842C10.7612 2.20892 10.1731 2.69079 9.58501 3.17266C9.5087 3.22821 9.44578 3.29981 9.40077 3.3823C9.35576 3.4648 9.32978 3.55614 9.32469 3.64976C9.19936 5.26235 9.0451 6.87495 8.91977 8.48755C8.91868 8.65087 8.87726 8.81145 8.79912 8.95531C8.72099 9.09916 8.6085 9.22193 8.47146 9.31293C8.26227 9.46307 8.06114 9.62391 7.86889 9.7948V9.7948Z" fill="#FFBA08"/>
<path d="M2.55652 3.01512C3.00483 2.63344 3.31817 2.13726 4.04126 2.24699C4.76434 2.35673 5.48743 2.3615 6.24908 2.41398L6.49493 2.44738C5.94538 2.92447 5.44404 3.32524 4.93788 3.74031C4.90903 3.76106 4.87611 3.7756 4.84124 3.78299C4.80637 3.79039 4.77033 3.79048 4.73542 3.78325C4.06054 3.57333 3.38566 3.35863 2.7156 3.13917C2.66739 3.12486 2.63365 3.07715 2.55652 3.01512Z" fill="#FFBA08"/>
</svg>
